<svg width="209" height="213" viewBox="0 0 209 213" fill="none" xmlns="http://www.w3.org/2000/svg">
<g clip-path="url(#clip0_52_974)">
<path d="M89.8668 69.0837L88.0137 69.0024C88.1241 66.4746 89.234 44.1884 94.112 40.123C94.4218 39.8461 94.7871 39.6387 95.1835 39.5146C95.5799 39.3904 95.9982 39.3524 96.4104 39.4031C99.3145 39.8076 102.486 44.4157 106.105 53.4907C108.683 59.952 110.54 66.3946 110.559 66.459L108.776 66.9713C108.758 66.9078 106.922 60.5431 104.378 54.167C99.8861 42.9093 97.1309 41.3776 96.1549 41.2418C95.9983 41.2248 95.8398 41.2437 95.6916 41.297C95.5433 41.3503 95.409 41.4366 95.2989 41.5493C91.6995 44.5488 90.1574 62.442 89.8668 69.0837Z" fill="black"/>
<path d="M73.4957 57.0587L71.6406 103.609L132.848 97.0114L125.282 52.0684L73.4957 57.0587Z" fill="#FFBA49"/>
<path d="M125.282 52.0684L120.78 52.5021L126.772 91.9126L71.855 98.2358L71.6406 103.609L132.848 97.0114L125.282 52.0684Z" fill="#FFA113"/>
<path d="M158.35 132.113L155.804 131.831C155.826 131.63 157.94 111.717 151.085 104.27C150.279 103.364 149.279 102.653 148.16 102.189C147.04 101.725 145.831 101.52 144.621 101.591C129.689 102.015 122.668 127.658 122.599 127.917L120.125 127.255C121.504 122.466 123.42 117.849 125.835 113.491C131.037 104.23 137.508 99.2289 144.548 99.0288C146.124 98.9479 147.699 99.2208 149.156 99.8275C150.613 100.434 151.916 101.359 152.97 102.535C160.613 110.841 158.446 131.249 158.35 132.113Z" fill="#445867"/>
<path d="M112.927 113.851L166.957 120.263L166.119 205.997L93.9961 197.401L112.927 113.851Z" fill="#346A91"/>
<path d="M166.957 120.263L161.606 119.627L159 198.955L95.0119 192.918L93.9961 197.401L166.119 205.997L166.957 120.263Z" fill="#8BB5D2"/>
<path d="M180.498 147.509C182.959 148.025 185.303 146.057 185.734 143.109C186.193 143.893 186.652 144.678 187.111 145.464C186.681 148.411 184.335 150.38 181.877 149.864C181.418 149.078 180.958 148.294 180.498 147.509Z" fill="#FFBA49"/>
<path d="M107.832 210.563C110.293 211.079 112.637 209.11 113.068 206.163C113.527 206.946 113.986 207.731 114.445 208.517C114.015 211.464 111.669 213.434 109.211 212.918C108.752 212.132 108.292 211.347 107.832 210.563Z" fill="#9B9B9B"/>
<path d="M185.994 98.1689C187.026 100.893 189.705 102.103 191.981 100.867C191.699 101.765 191.417 102.662 191.134 103.559C188.858 104.793 186.179 103.584 185.148 100.859C185.432 99.9635 185.714 99.0667 185.994 98.1689Z" fill="#FF5C00"/>
<path d="M170.071 78.8196C170.486 75.8685 168.827 73.0744 166.363 72.5772C167.015 72.0212 167.667 71.4652 168.319 70.9094C170.781 71.4065 172.441 74.2019 172.027 77.1517C171.376 77.708 170.724 78.2639 170.071 78.8196Z" fill="#021193"/>
<path d="M22.2077 66.9101C22.623 63.9591 20.9636 61.1648 18.5 60.6677C19.1515 60.1116 19.8035 59.5557 20.4563 59C22.918 59.497 24.5783 62.2923 24.164 65.2423C23.5125 65.7984 22.8604 66.3543 22.2077 66.9101Z" fill="#FF5C00"/>
<path d="M72.5943 171.475C73.0097 168.523 71.3503 165.729 68.8867 165.232C69.5382 164.676 70.1902 164.12 70.8429 163.564C73.3046 164.061 74.9649 166.857 74.5506 169.807C73.8992 170.363 73.2471 170.919 72.5943 171.475Z" fill="#FF5C00"/>
<path d="M201.832 60.8891C204.277 61.506 206.674 59.6326 207.189 56.7031C207.626 57.5057 208.063 58.309 208.5 59.1128C207.986 62.0394 205.587 63.914 203.144 63.2988C202.706 62.4962 202.269 61.6929 201.832 60.8891Z" fill="#FFBA49"/>
<path d="M6.32079 97.1413C5.44465 94.3385 2.83935 92.9172 0.5 93.9681C0.830918 93.0967 1.16232 92.2242 1.49421 91.3505C3.83162 90.3008 6.43838 91.7209 7.315 94.5226C6.9841 95.3951 6.65269 96.268 6.32079 97.1413Z" fill="#FFBA49"/>
<path d="M67.0349 131.28C67.2076 134.264 69.3677 136.516 71.8587 136.308C71.3334 137.033 70.8071 137.754 70.2827 138.479C67.7908 138.685 65.6315 136.432 65.459 133.447C65.9843 132.726 66.5096 132.003 67.0349 131.28Z" fill="#DB3022"/>
<path d="M49.4277 77.0532C51.9018 76.6419 53.6285 73.905 53.2843 70.9409C53.9234 71.5197 54.5616 72.0978 55.1988 72.6752C55.5421 75.6404 53.8163 78.3756 51.3423 78.7886C50.705 78.2097 50.0668 77.6312 49.4277 77.0532Z" fill="#021193"/>
<path d="M150.313 40.7055C147.105 40.8117 149.411 46.4644 146.202 46.573C145.589 45.9566 144.977 45.3403 144.363 44.7239C147.572 44.6171 145.266 38.9644 148.474 38.856C149.087 39.4723 149.7 40.0888 150.313 40.7055Z" fill="#FF5C00"/>
<path d="M156.142 189.278C153.02 188.392 154.032 194.565 150.908 193.68C150.448 192.895 149.989 192.11 149.529 191.325C152.653 192.211 151.64 186.038 154.765 186.924C155.223 187.709 155.683 188.493 156.142 189.278Z" fill="#FFBA49"/>
<path d="M63.2799 197.315C61.0743 200.11 66.0412 202.157 63.8356 204.949C63.0391 205.031 62.2416 205.116 61.4451 205.197C63.6507 202.404 58.6837 200.359 60.8894 197.565C61.6868 197.483 62.4837 197.4 63.2799 197.315Z" fill="#021193"/>
<path d="M134.725 4.35469C131.585 5.15391 134.701 10.2188 131.563 11.0163C130.869 10.5414 130.171 10.0682 129.477 9.59218C132.616 8.79516 129.497 3.73212 132.638 2.93286C133.334 3.4089 134.03 3.88284 134.725 4.35469Z" fill="#DB3022"/>
<path d="M33.9445 21.0039C35.4892 24.3758 38.6377 19.3395 40.1801 22.7103C40.0009 23.6436 39.824 24.5804 39.6439 25.5142C38.1016 22.1423 34.9548 27.1802 33.4102 23.8083C33.5898 22.8722 33.7679 21.9374 33.9445 21.0039Z" fill="#9B9B9B"/>
<path d="M7.31445 153.583C7.72878 153.508 8.10363 153.29 8.37356 152.966C8.64349 152.643 8.79136 152.235 8.79136 151.813C8.79136 151.392 8.64349 150.984 8.37356 150.661C8.10363 150.337 7.72878 150.119 7.31445 150.044" fill="black"/>
<path d="M174.948 16.8658C173.598 16.8658 172.5 15.5501 172.5 13.9328C172.5 12.3156 173.598 11 174.948 11C176.298 11 177.396 12.3156 177.396 13.9329C177.396 15.5501 176.298 16.8658 174.948 16.8658ZM174.948 12.1634C174.519 12.2058 174.124 12.415 173.848 12.7459C173.572 13.0768 173.436 13.5031 173.471 13.9329C173.432 14.1493 173.441 14.3716 173.497 14.5842C173.553 14.7968 173.655 14.9945 173.796 15.1633C173.937 15.332 174.113 15.4678 174.312 15.561C174.511 15.6541 174.728 15.7024 174.948 15.7024C175.168 15.7024 175.385 15.6541 175.584 15.561C175.783 15.4678 175.959 15.332 176.1 15.1633C176.241 14.9945 176.343 14.7968 176.399 14.5842C176.455 14.3716 176.464 14.1493 176.425 13.9329C176.459 13.5031 176.324 13.0768 176.048 12.7459C175.772 12.415 175.377 12.2058 174.948 12.1634Z" fill="black"/>
<path d="M32.4479 127.983C31.0981 127.983 30 126.668 30 125.05C30 123.433 31.0981 122.117 32.4479 122.117C33.7977 122.117 34.8958 123.433 34.8958 125.05C34.8958 126.668 33.7977 127.983 32.4479 127.983ZM32.4479 123.281C32.0336 123.356 31.6587 123.574 31.3888 123.897C31.1189 124.221 30.971 124.629 30.971 125.05C30.971 125.472 31.1189 125.88 31.3888 126.203C31.6587 126.526 32.0336 126.745 32.4479 126.82C32.8622 126.745 33.2371 126.526 33.507 126.203C33.7769 125.88 33.9248 125.472 33.9248 125.05C33.9248 124.629 33.7769 124.221 33.507 123.897C33.2371 123.574 32.8622 123.356 32.4479 123.281Z" fill="black"/>
</g>
<defs>
<clipPath id="clip0_52_974">
<rect width="208" height="213" fill="white" transform="translate(0.5)"/>
</clipPath>
</defs>
</svg>
